Coordinates
version=1
nRows=7
nColumns=42
inDegrees=yes

Units are S.I. units (second, meters, Newtons, ...)
If the header above contains a line with 'inDegrees', this indicates whether rotational values are in degrees (yes) or radians (no).

endheader
time	pelvis_tilt	pelvis_list	pelvis_rotation	pelvis_tx	pelvis_ty	pelvis_tz	hip_flexion_r	hip_adduction_r	hip_rotation_r	knee_angle_r	knee_angle_r_beta	ankle_angle_r	subtalar_angle_r	mtp_angle_r	hip_flexion_l	hip_adduction_l	hip_rotation_l	knee_angle_l	knee_angle_l_beta	ankle_angle_l	subtalar_angle_l	mtp_angle_l	lumbar_extension	lumbar_bending	lumbar_rotation	sh_tx_r	sh_ty_r	sh_tz_r	sh_plane_elev_r	sh_elev_r	sh_axial_rot_r	elbow_flex_r	pro_sup_r	sh_tx_l	sh_ty_l	sh_tz_l	sh_plane_elev_l	sh_elev_l	sh_axial_rot_l	elbow_flex_l	pro_sup_l
      0.00000000	     -4.96930002	     -0.15859495	     -0.25378725	      0.26209932	      0.92983919	     -0.05867500	      2.77047418	     -8.02920449	     -6.51155102	      2.40939029	      0.04205179	     -5.97199566	    -15.70396668	     -5.32686473	      4.53407277	     -2.90731089	     -7.73393696	      6.64054317	      0.11589934	      9.78229294	     -6.51864009	     -5.32686473	     -0.28084590	      0.31191796	     -1.38632978	      0.00258545	     -0.01564742	     -0.00516700	      4.11685894	      6.97825573	      1.08613902	     21.23348260	     80.16788038	      0.00290431	     -0.01560350	     -0.00519024	     13.92398126	      4.68598274	     -0.69981691	     22.08634828	     70.16585372
      0.01666670	     -7.00393842	     -0.18026511	     -0.45774073	      0.26434994	      0.92632481	     -0.05898692	      5.04453500	     -7.99325386	     -6.57471745	      2.45579457	      0.04286170	     -2.33057876	    -11.07503852	     -6.53826508	      6.70806005	     -2.81994163	     -9.13044160	      5.70233167	      0.09952446	     10.74725818	     -4.07281157	     -6.53826508	      3.22692189	      0.44358625	     -1.43251785	      0.00282428	     -0.01723140	     -0.00537125	     -8.14391288	      5.37066672	      0.68454231	     20.54544910	     80.83494045	      0.00436441	     -0.01729997	     -0.00543785	     -0.58204236	      2.25167532	     -1.44547053	     21.91487064	     75.41084692
      0.03333330	     -7.65345657	      0.65391424	     -0.72681473	      0.26464566	      0.92546951	     -0.05795331	      5.67781706	     -9.04955472	     -7.17788930	      2.01186279	      0.03511363	     -1.28930660	     -9.53720308	     -6.54679962	      7.06144199	     -2.02562078	    -10.46013458	      4.87879051	      0.08515096	     10.60088538	     -2.81342248	     -6.54679962	      3.91024032	     -0.60646095	     -1.26423583	      0.00329710	     -0.01726041	     -0.00535468	     -8.97612466	      5.64601475	     -0.88350545	     21.01000414	     79.72045267	      0.00235956	     -0.01732286	     -0.00509148	     -0.24709178	      2.72362689	     -2.62824141	     21.56040780	     74.82326407
      0.05000000	     -7.33687916	      1.02087271	     -0.81337050	      0.26039903	      0.92613875	     -0.05295574	      5.34870294	     -9.34676803	     -7.27611887	      1.68328304	      0.02937883	     -0.36716217	     -8.82566421	     -6.74242692	      6.17548940	     -1.69050701	    -10.82606246	      3.63512066	      0.06344482	      9.96357140	     -2.55058519	     -6.74242692	      3.50118368	     -1.23164865	     -0.66531152	      0.00655378	     -0.01772585	     -0.00511459	    -12.54194927	      5.92706766	     -0.41013573	     22.74381863	     77.31241163	      0.00309039	     -0.01736564	     -0.00483897	     -1.28662484	      3.15254386	     -1.57536334	     21.97813035	     74.66317472
      0.06666670	     -7.12786623	      1.13763401	     -0.87828755	      0.26044515	      0.92657295	     -0.05290242	      5.10341999	     -9.32422806	     -7.24186082	      1.51688554	      0.02647465	      0.30752245	     -8.62373009	     -6.88226163	      5.61996533	     -1.60921786	    -10.91995222	      2.85760301	      0.04987458	      9.55002850	     -2.29156920	     -6.88226163	      3.22550334	     -1.43140426	     -0.51611394	      0.00959978	     -0.01790139	     -0.00500656	    -12.33748231	      6.26498507	     -1.66299036	     23.85615632	     75.22508118	      0.00353315	     -0.01742496	     -0.00461565	      0.53358800	      3.56682794	     -1.99200702	     22.08198802	     72.85890044
      0.08333330	     -6.77426064	      1.28666930	     -0.89467301	      0.26433919	      0.92711114	     -0.05759405	      4.56590318	     -9.49894276	     -7.24437944	      1.39476313	      0.02434321	      0.84451883	     -8.09869033	     -7.02875870	      4.92103933	     -1.34455761	    -10.93542195	      2.39540398	      0.04180769	      9.54214689	     -2.11471039	     -7.02875870	      2.98750743	     -1.53987431	     -0.38526008	      0.01155739	     -0.01805087	     -0.00482306	    -12.66258817	      6.66000151	     -2.59399412	     24.55358779	     73.04378014	      0.00461887	     -0.01751838	     -0.00445092	      2.69477253	      3.51565403	     -2.45278934	     21.96953638	     70.51200907
      0.10000000	     -6.60812205	      1.29835712	     -0.86086841	      0.26033319	      0.92745845	     -0.05269643	      4.34553525	     -9.43090894	     -7.04162819	      1.29459505	      0.02259495	      1.38177972	     -8.03420971	     -7.24248911	      4.61253481	     -1.34595567	    -10.84716420	      2.08697380	      0.03642456	      9.46091531	     -2.19139450	     -7.24248911	      2.95356968	     -1.53875606	     -0.25270268	      0.01556145	     -0.01813394	     -0.00462417	    -13.98293160	      6.84960236	     -2.18897443	     25.56739612	     72.93304482	      0.00724233	     -0.01749758	     -0.00432351	      1.68269454	      3.37255906	     -1.45268658	     22.27179043	     68.44435112
